<?xml version="1.0" ?><svg viewBox="0 0 64 64" xmlns="http://www.w3.org/2000/svg"><defs><style>.cls-1{fill:#767689;}.cls-2,.cls-5{fill:#f9f9f9;}.cls-3{fill:#fcc667;}.cls-4{fill:#cac7c1;}.cls-5{fill-rule:evenodd;}.cls-6{fill:#5f5f70;}</style></defs><g id="Helmet"><path class="cls-1" d="M47.56,55.28l-1.23-5.55a24.76,24.76,0,1,0-37.92-21V45.09Z"/><path class="cls-2" d="M26.91,40.94a2.18,2.18,0,1,1-2.17,2.18A2.18,2.18,0,0,1,26.91,40.94Z"/><path class="cls-2" d="M18.33,38.06a2.18,2.18,0,1,1-2.18,2.17A2.18,2.18,0,0,1,18.33,38.06Z"/><path class="cls-3" d="M48.23,9.11,32.6,24.74l0,11.57,11.7,17.86s0,.18,0,.2l3.26.91-1.24-5.55A24.75,24.75,0,0,0,48.94,9.67Z"/><path class="cls-2" d="M51.11,11.7,37.75,25.06l-1,10,9.6,14.67a24.74,24.74,0,0,0,4.79-38Z"/><path class="cls-4" d="M27.37,26.75a6.48,6.48,0,1,1,0,5.78Z"/><path class="cls-3" d="M17.09,26.75H31.28a2.89,2.89,0,0,1,0,5.78H17.09a2.89,2.89,0,0,1,0-5.78Z"/><path class="cls-5" d="M29.63,28.66H26.41a1,1,0,0,0,0,2h3.22a1,1,0,0,0,0-2Z"/><path class="cls-6" d="M47.77,58.31l-.25,0-39.35-10a1,1,0,0,1-.76-1V28.76a25.76,25.76,0,1,1,40,21.45l1.31,6.91a1,1,0,0,1-.29.92A1,1,0,0,1,47.77,58.31ZM9.41,46.52,46.49,56l-1.15-6a1,1,0,0,1,.45-1A23.76,23.76,0,1,0,9.41,28.76Z"/><path class="cls-2" d="M9,45.16,47.56,55.28c1.25.33,2.33,1,2.33,2.34S48.81,60.27,47.56,60L7.8,49.67a2.33,2.33,0,0,1-1.65-2.86A2.35,2.35,0,0,1,9,45.16Z"/></g></svg>